<svg width="1055" height="343" viewBox="0 0 1055 343" fill="none" xmlns="http://www.w3.org/2000/svg">
<path fill-rule="evenodd" clip-rule="evenodd" d="M1003.34 1.51781C995.37 3.44681 985.153 8.98881 978.294 15.1018C967.354 24.8518 961.114 38.8398 953.833 69.9338C951.708 79.0088 947.215 97.9088 943.849 111.934C940.483 125.959 935.025 148.909 931.719 162.934C924.321 194.321 921.187 201.556 910.299 212.388C902.265 220.381 894.073 224.938 883.128 227.501C877.059 228.922 866.827 229.128 801.193 229.152C728.602 229.178 725.947 229.113 718.539 227.122C714.329 225.991 708.684 223.95 705.994 222.586C695.641 217.34 685.543 205.624 681.669 194.363C678.248 184.422 677.693 170.936 677.693 97.8278V26.9338H666.693H655.693V62.3908V97.8478L651.177 93.0208C633.747 74.3858 597.867 76.0958 578.81 96.4688C567.097 108.99 561.608 124.184 561.484 144.434C561.278 177.942 576.57 201.214 602.868 207.413C623.729 212.331 646.363 204.53 655.872 189.145C658.409 185.039 658.061 184.547 662.079 197.934C665.487 209.287 670.641 217.803 679.693 227.035C688.142 235.653 696.776 240.623 709.557 244.228C717.083 246.35 718.643 246.389 817.87 246.908C918.049 247.431 918.562 247.444 921.37 249.526C931.063 256.71 931.063 268.159 921.37 275.342C918.552 277.43 918.336 277.435 799.7 277.934L680.854 278.434L678.273 280.858C675.504 283.461 674.899 287.582 676.773 291.084C678.313 293.961 683.741 295.934 690.117 295.934H695.604L694.033 300.184C691.845 306.1 691.891 315.326 694.141 321.924C696.738 329.538 705.04 337.791 713.2 340.87C724.792 345.244 738.259 342.368 746.968 333.659C754.984 325.643 758.587 312.02 755.327 302.053C754.428 299.306 753.693 296.805 753.693 296.496C753.693 296.187 777.768 295.934 807.193 295.934C836.618 295.934 860.693 296.104 860.693 296.312C860.693 296.52 860.018 298.305 859.193 300.28C858.32 302.369 857.693 306.951 857.693 311.242C857.693 317.469 858.17 319.568 860.761 324.755C864.106 331.448 869.452 336.648 876.617 340.179C880.278 341.983 882.892 342.434 889.693 342.434C896.964 342.434 899.012 342.032 903.854 339.654C910.072 336.601 915.368 331.346 918.897 324.729C920.821 321.12 921.188 318.916 921.19 310.934C921.192 303.833 920.759 300.641 919.475 298.295L917.756 295.156L922.475 293.997C936.971 290.439 947.792 274.99 946.416 259.815C945.147 245.819 934.825 233.786 921.285 230.518L918.377 229.817L923.419 224.625C936.277 211.387 941.383 199.803 949.064 166.434C957.132 131.387 972.339 67.9238 975.302 56.9338C978.802 43.9508 982.681 36.2338 988.865 29.9508C998.797 19.8608 1008.95 16.9888 1034.81 16.9538C1048.06 16.9358 1049.67 16.7408 1052.06 14.8608C1054.18 13.1888 1054.69 11.9478 1054.69 8.43381C1054.69 4.91981 1054.18 3.67881 1052.06 2.00681C1049.58 0.0588076 1048.21 -0.061198 1029.31 0.016802C1015.63 0.073802 1007.32 0.553809 1003.34 1.51781ZM47.6927 33.4348C27.1427 37.5878 13.3117 47.0758 6.3307 61.8108C3.4227 67.9488 3.19471 69.2028 3.22571 78.9338C3.25271 87.6238 3.6437 90.2818 5.4947 94.3538C12.1477 108.992 25.5337 117.717 56.2457 127.432C85.2887 136.62 95.1037 144.259 96.3987 158.684C97.1167 166.679 95.3537 172.262 90.4197 177.614C80.9027 187.939 64.5977 191.81 43.0147 188.868C34.0717 187.649 16.1417 181.967 10.1277 178.446L6.0617 176.066L3.2417 184.75C1.6907 189.526 0.239698 193.917 0.0176983 194.508C-0.577302 196.089 13.9657 202.582 23.1927 204.855C42.5457 209.622 65.2977 210.077 80.9927 206.011C90.5457 203.536 101.273 198.024 107.514 192.382C126.418 175.296 126.264 144.086 107.193 127.301C99.9677 120.942 89.6057 115.926 69.3547 108.987C48.6737 101.9 41.2027 98.3668 35.2037 92.8378C29.6347 87.7038 27.6927 83.4808 27.6927 76.5008C27.6927 69.2758 29.3907 65.3328 34.4797 60.7408C39.7447 55.9898 43.1337 54.2778 50.8927 52.4488C64.4497 49.2528 83.6257 51.0108 99.8687 56.9388C104.158 58.5038 107.838 59.4808 108.046 59.1088C108.254 58.7378 109.664 54.6688 111.18 50.0678C113.446 43.1858 113.692 41.5468 112.564 40.8328C109.755 39.0548 95.4177 34.7178 87.9347 33.3838C78.2797 31.6628 56.3267 31.6908 47.6927 33.4348ZM515.106 34.8508C514.879 35.0798 514.693 73.6668 514.693 120.601V205.934H526.193H537.693V120.496V35.0588L526.606 34.7458C520.508 34.5748 515.333 34.6218 515.106 34.8508ZM197.193 80.9558C185.773 83.2478 174.928 89.7048 169.455 97.4688C167.736 99.9078 166.118 101.693 165.861 101.435C165.603 101.177 165.122 97.0218 164.793 92.1998L164.193 83.4338L153.792 83.1468L143.391 82.8608L144.036 91.1468C144.391 95.7048 144.684 123.396 144.687 152.684L144.693 205.934H156.149H167.605L167.67 167.214C167.711 142.826 168.134 127.008 168.815 124.481C171.705 113.748 178.306 105.813 188.045 101.366C193.268 98.9808 194.793 98.7408 202.233 99.1308C209.267 99.5008 211.305 100.027 215.29 102.501C220.355 105.646 225.873 112.779 227.863 118.752C228.729 121.35 229.194 134.731 229.442 164.184L229.794 205.934H241.318H252.843L252.428 162.684C251.986 116.433 251.792 114.505 246.447 103.134C243.116 96.0478 234.659 87.6408 227.738 84.5348C218.394 80.3408 206.941 78.9988 197.193 80.9558ZM441.418 81.4328C428.131 84.8058 418.107 92.4188 413.392 102.717C410.279 109.515 410.298 122.619 413.431 128.974C418.167 138.584 426.441 144.378 447.071 152.531C458.355 156.99 465.833 162.797 467.743 168.585C469.313 173.343 468.464 180.043 465.819 183.757C458.852 193.542 436.837 194.588 419.722 185.948C416.437 184.29 413.53 182.934 413.26 182.934C412.991 182.934 412.304 184.622 411.735 186.684C411.165 188.747 410.044 192.573 409.243 195.188L407.787 199.941L411.638 201.906C423.2 207.805 445.058 210.447 458.521 207.573C477.525 203.517 487.716 194.066 490.731 177.702C492.047 170.562 490.559 161.176 487.191 155.376C481.968 146.384 473.696 140.883 453.611 133.044C436.518 126.373 430.707 119.578 433.633 109.684C435.267 104.159 437.108 102.16 443.193 99.3018C451.594 95.3558 464.796 96.4168 476.239 101.956C478.746 103.17 481.016 103.945 481.283 103.678C481.55 103.411 482.831 99.7468 484.13 95.5368L486.492 87.8808L483.843 86.5188C473.146 81.0168 452.707 78.5668 441.418 81.4328ZM744.693 81.5008C724.092 85.9618 708.294 102.386 701.953 125.934C699.232 136.039 699.549 157.103 702.57 166.934C711.14 194.82 731.674 208.934 763.672 208.934C777.051 208.934 798.103 204.519 802.073 200.881C802.91 200.113 800.102 187.284 798.749 185.699C798.404 185.294 795.754 185.863 792.861 186.962C789.967 188.062 783.022 189.687 777.427 190.573C765.8 192.414 756.212 191.597 746.407 187.928C739.79 185.452 731.733 178.565 727.998 172.191C725.124 167.288 721.693 156.139 721.693 151.706V148.934H765.693H809.693V139.022C809.693 107.508 795.616 86.6288 770.824 81.3738C762.563 79.6228 753.152 79.6688 744.693 81.5008ZM858.035 81.4128C845.223 83.7378 831.693 89.3478 831.693 92.3348C831.693 93.4658 835.662 106.046 836.244 106.759C836.39 106.938 838.268 105.92 840.417 104.498C849.912 98.2138 868.253 95.1008 879.441 97.8728C890.017 100.494 896.299 108.501 897.413 120.78L897.953 126.739L890.073 127.406C862.063 129.776 844.066 135.703 834.014 145.867C823.548 156.449 820.155 172.426 825.241 187.178C827.19 192.829 834.256 201.007 840.2 204.491C849.517 209.951 865.827 211.137 878.884 207.302C906.579 199.169 923.814 169.334 921.242 133.975C918.756 99.8028 909.814 86.4568 886.028 81.4168C877.764 79.6658 867.671 79.6648 858.035 81.4128ZM279.919 127.684C280.277 170.734 280.375 172.688 282.515 179.127C285.475 188.039 292.02 197.521 298.036 201.616C310.62 210.18 332.484 211.159 346.964 203.806C349.29 202.624 354.202 198.602 357.88 194.867L364.567 188.076L365.13 193.255C365.44 196.103 365.806 200.009 365.944 201.934L366.193 205.434L376.593 205.721L386.993 206.007L386.343 198.32C385.985 194.092 385.693 166.4 385.693 136.783V82.9338H374.193H362.693L362.681 122.184C362.669 163.828 362.282 168.009 357.768 175.312C355.192 179.481 348.989 185.205 344.503 187.553C339.577 190.132 325.88 190.659 320.197 188.489C313.752 186.027 307.258 178.399 304.531 170.087C302.467 163.798 302.325 161.231 301.925 123.184L301.503 82.9338H290.525H279.547L279.919 127.684ZM771.499 99.9108C774.64 101.585 778.53 104.609 780.143 106.631C784.014 111.483 787.476 120.238 788.302 127.265L788.968 132.934H755.717H722.466L723.137 128.184C724.056 121.676 729.64 110.221 734.11 105.676C743.9 95.7188 759.206 93.3588 771.499 99.9108ZM635.193 100.807C645.027 105.185 651.559 114.093 654.253 126.803C655.898 134.566 656.132 153.33 654.679 161.048C652.462 172.827 644.966 183.161 635.193 187.913C628.306 191.262 614.502 191.427 607.517 188.243C597.84 183.833 590.242 174.569 586.522 162.648C584.036 154.681 583.856 137.159 586.17 128.515C589.781 115.031 598.498 104.133 608.995 99.9768C615.969 97.2158 627.98 97.5958 635.193 100.807ZM898.487 156.184C898.001 170.852 896.971 174.447 891.256 181.423C889.379 183.714 885.029 187.08 881.527 188.953C876.1 191.855 874.187 192.347 868.168 192.387C858.212 192.454 852.293 189.34 848.472 182.025C841.187 168.079 848.76 152.774 865.593 147.425C872.586 145.204 885.345 143.163 893.059 143.033L898.925 142.934L898.487 156.184ZM730.673 297.686C740.769 302.758 741.532 316.786 732.052 323.036C727.601 325.97 719.661 325.62 715.734 322.315C711.225 318.521 709.381 314.392 709.948 309.36C711.125 298.918 721.497 293.075 730.673 297.686ZM895.624 297.398C903.208 301.32 906.155 309.282 902.68 316.462C897.115 327.957 881.66 327.896 876.556 316.358C871.21 304.273 884.111 291.445 895.624 297.398Z" fill="white"/>
</svg>
